<svg xmlns="http://www.w3.org/2000/svg" xmlns:xlink="http://www.w3.org/1999/xlink" preserveAspectRatio="xMidYMid" width="345" height="252" viewBox="0 0 345 252">
  <defs>
    <style>
      .cls-1 {
        fill: #a9a9a9;
      }

      .cls-1, .cls-2, .cls-3, .cls-4, .cls-5, .cls-6 {
        fill-rule: evenodd;
      }

      .cls-2 {
        fill: #eaeaea;
      }

      .cls-3 {
        fill: #d4d4d4;
      }

      .cls-4 {
        fill: #5f91bb;
      }

      .cls-5 {
        fill: #6c60b3;
      }

      .cls-6 {
        fill: #434343;
      }

      .cls-7, .cls-8 {
        font-size: 12px;
      }

      .cls-7 {
        opacity: 0.3;
      }

      .cls-8 {
        font-family: "Myriad Pro";
      }
    </style>
  </defs>
  <g>
    <path d="M152.000,168.000 C152.000,168.000 153.000,178.722 153.000,188.000 C153.000,195.541 152.000,199.500 152.000,202.000 C152.000,204.500 150.187,211.188 153.000,213.000 C155.812,214.813 166.000,213.000 166.000,213.000 L166.000,176.000 L152.000,168.000 Z" class="cls-1"/>
    <path d="M233.000,184.000 C233.000,184.000 235.000,190.271 235.000,197.000 C235.000,203.771 233.187,209.500 234.000,211.000 C234.812,212.500 238.781,214.500 240.000,215.000 C241.219,215.500 247.156,216.281 249.000,215.000 C249.000,213.719 249.000,181.000 249.000,181.000 L233.000,184.000 Z" class="cls-1"/>
  </g>
  <g>
    <path d="M261.000,128.000 C261.000,128.000 268.938,125.031 278.000,125.000 C287.063,124.969 292.939,129.239 297.000,132.000 C303.344,136.313 305.000,146.000 305.000,146.000 C305.000,146.000 296.812,135.281 292.000,136.000 C295.906,146.531 290.000,157.000 290.000,157.000 C290.000,157.000 288.250,137.875 283.000,138.000 C279.812,138.094 281.000,145.000 281.000,145.000 C281.000,145.000 273.562,137.094 268.000,138.000 C265.875,134.844 261.000,128.000 261.000,128.000 Z" class="cls-1"/>
    <path d="M161.000,104.000 L165.000,114.000 C165.000,114.000 172.250,122.750 181.000,124.000 C185.406,124.629 198.686,126.129 212.000,126.000 C225.125,125.873 238.284,124.124 243.000,124.000 C252.500,123.750 256.750,123.250 262.000,126.000 C267.250,128.750 269.750,140.250 271.000,145.000 C272.250,149.750 271.750,160.750 271.000,163.000 C270.250,165.250 267.500,172.000 267.000,176.000 C266.753,177.972 265.990,188.583 266.000,199.000 C266.010,209.708 266.774,220.226 265.000,222.000 C261.500,225.500 251.687,226.438 247.000,223.000 C244.917,221.473 246.834,209.054 247.000,201.000 C247.207,190.926 246.000,183.000 246.000,183.000 C246.000,183.000 231.250,190.750 215.000,190.000 C198.750,189.250 182.000,185.000 182.000,185.000 C182.000,185.000 181.260,193.216 181.000,202.000 C180.747,210.557 180.987,219.656 180.000,222.000 C178.000,226.750 166.000,226.000 163.000,223.000 C161.426,221.426 162.945,211.726 163.000,201.000 C163.050,191.277 162.500,183.812 160.000,178.000 C159.029,175.742 150.219,169.768 145.000,162.000 C139.205,153.373 137.000,143.000 137.000,143.000 L161.000,104.000 Z" class="cls-2"/>
    <path d="M146.000,163.000 C147.438,159.406 166.469,114.469 164.000,112.000 C163.659,111.659 163.000,111.000 163.000,111.000 C163.000,111.000 139.835,147.057 139.000,148.000 C138.031,149.094 143.781,162.281 146.000,163.000 Z" class="cls-3"/>
    <path d="M110.000,177.000 C110.000,177.000 104.875,168.375 106.000,158.000 C106.469,155.250 128.000,157.000 128.000,157.000 C128.000,157.000 128.813,156.812 131.000,160.000 C133.187,163.187 131.000,176.000 131.000,176.000 C131.000,176.000 128.844,166.000 127.000,166.000 C123.875,166.000 119.000,174.000 119.000,174.000 C119.000,174.000 118.969,167.000 117.000,167.000 C112.188,167.125 110.000,177.000 110.000,177.000 Z" class="cls-1"/>
    <path d="M52.000,54.000 C43.250,72.083 29.167,74.500 29.000,79.000 C28.833,83.500 31.750,88.083 39.000,88.000 C46.250,87.917 58.000,82.000 58.000,82.000 C58.000,82.000 54.083,63.750 52.000,54.000 Z" class="cls-1"/>
    <path d="M177.000,54.000 C185.750,72.083 199.833,74.500 200.000,79.000 C200.167,83.500 197.250,88.083 190.000,88.000 C182.750,87.917 171.000,82.000 171.000,82.000 C171.000,82.000 174.917,63.750 177.000,54.000 Z" class="cls-1"/>
    <path d="M70.000,12.000 C70.000,12.000 65.281,21.683 61.000,31.000 C56.781,40.182 53.000,49.000 53.000,49.000 L87.000,41.000 C87.000,41.000 80.031,28.583 75.000,20.000 C72.331,15.448 70.000,12.000 70.000,12.000 Z" class="cls-4"/>
    <path d="M157.000,12.000 C157.000,12.000 162.719,21.683 167.000,31.000 C171.219,40.182 175.000,49.000 175.000,49.000 L140.000,41.000 C140.000,41.000 146.969,28.583 152.000,20.000 C154.669,15.448 157.000,12.000 157.000,12.000 Z" class="cls-4"/>
    <path d="M53.000,47.000 C57.872,43.670 78.143,38.857 90.000,37.000 C101.857,35.143 120.000,32.857 137.000,36.000 C154.000,39.143 169.542,44.598 174.000,47.000 C178.458,49.402 180.429,61.429 179.000,75.000 C177.571,88.571 141.863,163.000 117.000,163.000 C92.137,163.000 56.485,99.581 52.370,87.745 C48.254,75.908 48.020,50.403 53.000,47.000 Z" class="cls-2"/>
    <path d="M108.000,131.000 C109.062,129.937 127.625,129.625 129.000,131.000 C129.701,131.701 127.985,135.595 125.000,140.000 C122.130,144.235 118.000,149.000 118.000,149.000 C118.000,149.000 115.531,146.172 113.000,142.000 C110.253,137.473 107.447,131.553 108.000,131.000 Z" class="cls-5"/>
    <path d="M83.000,69.000 C88.500,69.000 91.000,74.188 91.000,79.000 C91.000,85.979 87.313,89.000 83.000,89.000 C78.687,89.000 74.000,85.417 74.000,78.000 C74.000,74.250 77.500,69.000 83.000,69.000 Z" class="cls-6"/>
    <path d="M144.000,69.000 C138.500,69.000 136.000,74.188 136.000,79.000 C136.000,85.979 139.687,89.000 144.000,89.000 C148.313,89.000 153.000,85.417 153.000,78.000 C153.000,74.250 149.500,69.000 144.000,69.000 Z" class="cls-6"/>
  </g>
  <text x="250" y="222" class="cls-7"><tspan class="cls-8">tm</tspan></text>
</svg>
