<svg xmlns="http://www.w3.org/2000/svg" preserveAspectRatio="xMidYMid" width="345" height="252" viewBox="0 0 345 252"><defs><style>.cls-1 { fill: #3c3c3c; } .cls-1, .cls-2, .cls-3, .cls-4, .cls-5, .cls-6 { fill-rule: evenodd; } .cls-2 { fill: #000; } .cls-3 { fill: #565656; } .cls-4 { fill: #3e3e3e; } .cls-5 { fill: red; } .cls-6 { fill: #fff; } .cls-7, .cls-8 { font-size: 12px; } .cls-7 { opacity: 0.3; } .cls-8 { font-family: &quot;Myriad Pro&quot;; }</style></defs><path d="M152 168s1 10.722 1 20c0 7.54-1 11.5-1 14s-1.813 9.187 1 11c2.812 1.812 13 0 13 0v-37l-14-8zM233 184s2 6.27 2 13c0 6.77-1.813 12.5-1 14 .812 1.5 4.78 3.5 6 4 1.22.5 7.156 1.28 9 0v-34l-16 3z" class="cls-1"/><path d="M261 128s7.937-2.97 17-3c9.062-.03 14.94 4.24 19 7 6.344 4.312 8 14 8 14s-8.188-10.72-13-10c3.906 10.53-2 21-2 21s-1.75-19.125-7-19c-3.188.094-2 7-2 7s-7.438-7.906-13-7c-2.125-3.156-7-10-7-10z" class="cls-2"/><path d="M161 104l4 10s7.25 8.75 16 10c4.406.63 17.686 2.13 31 2 13.125-.127 26.284-1.876 31-2 9.5-.25 13.75-.75 19 2s7.75 14.25 9 19 .75 15.75 0 18-3.5 9-4 13c-.247 1.972-1.01 12.583-1 23 .01 10.708.774 21.226-1 23-3.5 3.5-13.313 4.437-18 1-2.083-1.527-.166-13.946 0-22 .207-10.074-1-18-1-18s-14.75 7.75-31 7-33-5-33-5-.74 8.216-1 17c-.253 8.557-.013 17.656-1 20-2 4.75-14 4-17 1-1.574-1.574-.055-11.274 0-22 .05-9.723-.5-17.188-3-23-.97-2.258-9.78-8.232-15-16-5.795-8.627-8-19-8-19l24-39z" class="cls-3"/><path d="M146 163c1.437-3.594 20.47-48.53 18-51l-1-1s-23.165 36.057-24 37c-.97 1.094 4.78 14.28 7 15z" class="cls-4"/><path d="M110 177s-5.125-8.625-4-19c.47-2.75 22-1 22-1s.812-.188 3 3c2.187 3.187 0 16 0 16s-2.156-10-4-10c-3.125 0-8 8-8 8s-.03-7-2-7c-4.813.125-7 10-7 10z" class="cls-2"/><path d="M52 54c-8.75 18.083-22.833 20.5-23 25-.167 4.5 2.75 9.083 10 9 7.25-.083 19-6 19-6s-3.917-18.25-6-28zM177 54c8.75 18.083 22.833 20.5 23 25 .167 4.5-2.75 9.083-10 9-7.25-.083-19-6-19-6s3.917-18.25 6-28z" class="cls-1"/><path d="M70 12s-10.72 3.683-15 13c-4.22 9.182-2 24-2 24l34-8s-12.97-5.417-18-14c-2.67-4.552 1-15 1-15zM157 12s8.72 3.683 13 13c4.22 9.182 5 24 5 24l-35-8s10.97-6.417 16-15c2.67-4.552 1-14 1-14z" class="cls-5"/><path d="M53 47c4.872-3.33 25.143-8.143 37-10 11.857-1.857 30-4.143 47-1s32.542 8.598 37 11c4.458 2.402 6.43 14.43 5 28-1.43 13.57-37.137 88-62 88S56.485 99.58 52.37 87.745C48.254 75.908 48.02 50.403 53 47z" class="cls-3"/><path d="M108 131c1.062-1.062 19.625-1.375 21 0 .7.7-1.015 4.595-4 9-2.87 4.235-7 9-7 9s-2.47-2.828-5-7c-2.747-4.527-5.553-10.447-5-11z" class="cls-2"/><path d="M91 81c0 5.062-3.688 8-8 8-4.313 0-8.93-4.392-8.924-11.81C78.666 76.146 84 78.29 91 81zM138 81c0 5.062 3.688 8 8 8 4.313 0 8.93-4.392 8.924-11.81C150.334 76.146 145 78.29 138 81z" class="cls-6"/><text x="250" y="222" class="cls-7"><tspan class="cls-8">tm</tspan></text></svg>